<svg width="453" height="278" viewBox="0 0 453 278" fill="none" xmlns="http://www.w3.org/2000/svg">
<path d="M235.813 255H309.875L302.919 245.32H242.769L235.813 255Z" fill="#FF6A00"/>
<path d="M305.18 256.789V284.003H284.27V274.71C284.27 268.407 279.159 263.297 272.856 263.297C266.552 263.297 261.442 268.407 261.442 274.71V284.003H240.532V256.789H305.18ZM295.153 268.131C297.264 268.131 298.978 266.418 298.978 264.306C298.978 262.195 297.264 260.481 295.153 260.481C293.042 260.481 291.328 262.195 291.328 264.306C291.328 266.418 293.042 268.131 295.153 268.131ZM250.559 268.131C252.67 268.131 254.384 266.418 254.384 264.306C254.384 262.195 252.67 260.481 250.559 260.481C248.447 260.481 246.734 262.195 246.734 264.306C246.734 266.418 248.447 268.131 250.559 268.131Z" fill="#FF6A00"/>
<path d="M179.061 250.623H234.641L226.634 239.484H187.058L179.061 250.623Z" fill="#FF6A00"/>
<path d="M184.461 252.664H229.219V283.988H184.461V252.664Z" fill="#FF6A00"/>
<path d="M323.751 206.385H322.482L314.779 196.06H317.077C321.53 196.06 325.753 194.098 328.631 190.69C327.384 189.451 327.055 187.566 327.821 185.988C327.821 186.657 328.062 187.314 328.511 187.818C329.156 188.564 330.086 188.98 331.06 188.969H354.649C355.623 188.969 356.564 188.564 357.199 187.818C357.636 187.314 357.877 186.657 357.877 185.988C358.654 187.588 358.315 189.506 357.034 190.734C359.037 193.112 361.717 194.811 364.715 195.6V183.478H363.446L355.743 173.154H358.107C362.56 173.154 366.783 171.192 369.661 167.783C368.413 166.545 368.096 164.649 368.862 163.07C368.862 163.75 369.103 164.397 369.54 164.912C370.186 165.646 371.116 166.062 372.09 166.051H395.679C396.653 166.062 397.594 165.646 398.228 164.912C398.677 164.407 398.917 163.75 398.917 163.07C399.694 164.67 399.344 166.6 398.064 167.827C400.931 171.236 405.165 173.198 409.618 173.198H411.981L404.279 183.522H401.893V195.852C405.329 195.205 408.436 193.397 410.679 190.712C409.432 189.473 409.104 187.588 409.87 186.01C409.87 186.678 410.11 187.336 410.559 187.84C411.204 188.586 412.134 189.002 413.108 188.991H436.698C437.671 188.991 438.612 188.586 439.247 187.84C439.685 187.336 439.925 186.678 439.925 186.01C440.702 187.61 440.363 189.528 439.083 190.756C441.949 194.164 446.184 196.126 450.637 196.126H453L445.286 206.451H442.901V215.021H447.672V228.93H442.485V274.82H447.672V284.07H403.841V228.864H364.037V283.972H302V274.721H325.403V228.864H320.217V214.956H323.751V206.385ZM325.458 206.385V214.956H331.432V206.385H325.458ZM333.172 206.385V214.956H351.498V206.385H333.172ZM353.216 206.385V214.956H359.212V206.385H353.216ZM363.315 206.385H360.93V214.956H364.792V204.39L363.304 206.385H363.315ZM366.51 183.478V195.907C367.221 196.006 367.943 196.06 368.665 196.06H371.028L366.51 202.099V214.956H372.462V183.467H366.51V183.478ZM374.223 183.478V214.967H392.561V183.478H374.223ZM400.285 183.478H394.289V214.967H400.285V200.576L396.882 196.027H400.263L400.285 183.478ZM401.992 202.91V214.956H405.854V206.385H404.585L401.992 202.91ZM407.572 206.385V214.956H413.568V206.385H407.572ZM415.297 206.385V214.956H433.623V206.385H415.297ZM441.337 206.385H435.341V214.956H441.337V206.385ZM410.362 274.765H436.008V228.875H410.362V274.765ZM331.913 274.765H357.56V228.875H331.913V274.765Z" fill="#FF6A00"/>
<path d="M6.89523 208.242V198.087H14.8515V161.642C4.40889 159.942 -4.79664 155.945 -6.93125 147.283C-1.3764 150.551 4.77276 152.677 11.1524 153.552V144.441H18.3445V111.665C8.94495 110.122 0.624794 106.502 -1.2915 98.7275C3.83885 101.74 9.52713 103.684 15.4337 104.425V96.5408H21.8497V64.3241C18.1505 62.8542 15.3367 60.5582 14.4634 56.9745C14.4634 56.9745 26.0947 64.397 37.3863 59.3434C37.3863 59.3434 28.8357 54.9458 27.8048 51.5686C27.8048 51.5686 37.3257 58.1164 47.6106 46.9159C46.2401 45.3852 46.3735 43.0407 47.9017 41.6679C48.4111 41.2184 49.0296 40.9026 49.7088 40.7811V11.3585C49.7088 11.1034 49.8665 10.8725 50.097 10.7511V0H50.7034V10.7511C50.9338 10.8604 51.0794 11.0912 51.0915 11.3585V40.7811C53.1048 41.1577 54.439 43.0893 54.063 45.1058C53.9417 45.774 53.6385 46.4057 53.1776 46.9159C63.4626 58.1164 72.9835 51.5686 72.9835 51.5686C71.9647 54.9822 63.4019 59.3434 63.4019 59.3434C74.6936 64.397 86.3248 56.9745 86.3248 56.9745C85.4516 60.5461 82.6256 62.8542 78.9386 64.3241V96.5408H85.3545V104.425C91.2611 103.684 96.9494 101.752 102.08 98.7275C100.163 106.502 91.8433 110.122 82.4437 111.665V144.501H89.6359V153.613C96.0155 152.75 102.165 150.612 107.72 147.344C105.585 155.981 96.343 160.015 85.9367 161.703V198.147H93.893V208.303C101.667 207.453 109.163 204.95 115.906 200.99C113.456 210.866 102.929 215.471 91.0064 217.402V258.936H94.2811L99.7268 274H1.12206L6.56778 258.936H9.79397V217.341C-2.12836 215.41 -12.668 210.806 -15.0938 200.929C-8.36243 204.902 -0.854866 207.392 6.90737 208.242H6.89523ZM80.8064 199.8V205.971H85.3545V199.8H80.8064ZM50.3881 165.627C45.9005 165.627 42.262 169.271 42.262 173.754V198.014H58.5505V173.766C58.5263 169.296 54.8999 165.676 50.4366 165.676L50.4002 165.615L50.3881 165.627ZM15.4216 199.8V205.971H19.9698V199.8H15.4216ZM61.1945 199.8V205.971H65.7427V199.8H61.1945ZM35.0455 199.8V205.971H39.5937V199.8H35.0455ZM41.5828 199.8V205.971H46.131V199.8H41.5828ZM48.12 205.971H52.6682V199.8H48.12V205.971ZM54.6694 205.971H59.2176V199.8H54.6694V205.971ZM21.971 205.971H26.5191V199.8H21.971V205.971ZM28.5082 205.971H33.0564V199.8H28.5082V205.971ZM67.744 199.8V205.971H72.2922V199.8H67.744ZM74.2812 205.971H78.8294V199.8H74.2812V205.971ZM8.88433 205.971H13.4325V199.8H8.88433V205.971ZM33.0201 198.074V178.103C32.8624 174.289 29.6483 171.324 25.84 171.47C22.2499 171.616 19.3633 174.495 19.2178 178.103V198.074H33.0079H33.0201ZM77.8349 146.032V151.596H81.9222V146.032H77.8349ZM50.3881 115.273C46.3493 115.273 43.0624 118.553 43.0624 122.611V144.477H57.7258V122.611C57.7258 118.565 54.439 115.285 50.4002 115.273H50.3759H50.3881ZM18.8782 146.032V151.596H22.9776V146.032H18.8782ZM60.1394 146.032V151.596H64.2388V146.032H60.1394ZM36.5494 146.032V151.596H40.6367V146.032H36.5494ZM42.456 146.032V151.596H46.5433V146.032H42.456ZM48.3505 151.596H52.4378V146.032H48.3505V151.596ZM54.2449 151.596H58.3322V146.032H54.2449V151.596ZM24.7605 151.596H28.8721V146.032H24.7848L24.7484 151.596H24.7605ZM30.6671 151.596H34.7544V146.032H30.6671V151.596ZM66.0459 146.032V151.596H70.1333V146.032H66.0459ZM71.9283 151.596H76.0156V146.032H71.9283V151.596ZM12.9716 151.596H17.0589V146.032H12.9595V151.596H12.9716ZM34.7302 144.477V126.486C34.8757 123.048 32.2195 120.145 28.7872 119.999C25.3548 119.853 22.4561 122.513 22.3106 125.951C22.3106 126.134 22.3106 126.304 22.3106 126.486V144.477H34.7423H34.7302ZM74.827 97.8893V102.846H78.4656V97.8893H74.827ZM50.3881 70.5561C46.7859 70.5561 43.8629 73.4838 43.8629 77.0917V96.5651H56.9253V77.0917C56.9617 73.4838 54.063 70.5318 50.4608 70.4953C50.4487 70.4953 50.4244 70.4953 50.4123 70.4953L50.3881 70.5561ZM22.3106 97.8893V102.846H25.9491V97.8893H22.3106ZM59.0721 97.8893V102.846H62.7106V97.8893H59.0721ZM38.0655 97.8893V102.846H41.7041V97.8893H38.0655ZM43.3171 97.8893V102.846H46.9557V97.8893H43.3171ZM48.5688 102.846H52.1952V97.8893H48.5688V102.846ZM53.8326 102.846H57.459V97.8893H53.9053L53.8326 102.846ZM27.5622 102.846H31.2008V97.8893H27.5622V102.846ZM32.8138 102.846H36.4524V97.8893H32.8138V102.846ZM64.3237 97.8893V102.846H67.9623V97.8893H64.3237ZM69.5753 102.846H73.226V97.8893H69.5875V102.846H69.5753ZM17.0711 102.846H20.6975V97.8893H17.0711V102.846ZM36.3918 96.5165V80.481C36.3918 77.4197 33.9176 74.9294 30.8612 74.9294C27.8048 74.9294 25.3184 77.4076 25.3184 80.4689V96.5165H36.3918ZM75.3607 80.481C75.3607 77.4197 72.8865 74.9294 69.8301 74.9294C66.7737 74.9294 64.2873 77.4076 64.2873 80.4689V96.5165H75.3607V80.481ZM83.6808 97.8893H80.0544V102.846H83.6929V97.8893H83.6808ZM78.4413 126.486C78.5868 123.048 75.9307 120.145 72.4983 119.999C69.066 119.853 66.1672 122.513 66.0217 125.951C66.0217 126.134 66.0217 126.304 66.0217 126.486V144.477H78.514L78.4413 126.486ZM87.756 146.032H83.6687V151.596H87.756V146.032ZM81.5098 178.115C81.3521 174.301 78.1381 171.337 74.3297 171.482C70.7397 171.628 67.8531 174.507 67.7076 178.115V198.087H81.5705L81.4977 178.115H81.5098ZM91.8433 199.751H87.2951V205.922H91.8433V199.751ZM41.0612 258.827H59.7028V231.251C59.7028 226.112 55.5548 221.958 50.4366 221.945C45.3062 221.945 41.1461 226.112 41.1461 231.251L41.0734 258.827H41.0612ZM85.961 236.049C85.961 231.688 82.4437 228.153 78.0896 228.141C73.7354 228.129 70.206 231.664 70.1939 236.025V258.827H86.0216L85.9488 236.049H85.961ZM30.4852 258.827V236.049C30.4852 231.688 26.9679 228.153 22.6138 228.141C18.2596 228.129 14.7303 231.664 14.7181 236.025V258.827H30.4731H30.4852Z" fill="#FF6A00"/>
<path d="M-9.09375 277H109.906V284H-9.09375V277Z" fill="#FF6A00"/>
<path d="M108.932 271.558H111.39V250.015H108.932L98.5792 236.154H101.741C107.729 236.154 113.41 233.512 117.276 228.932L117.327 228.871C115.664 227.208 115.226 224.668 116.246 222.547C116.246 223.455 116.592 224.332 117.204 225.015C118.071 226.005 119.326 226.555 120.642 226.545H152.323C153.639 226.555 154.893 226.005 155.76 225.015C156.372 224.332 156.709 223.455 156.719 222.547C157.739 224.699 157.28 227.259 155.567 228.922C159.432 233.502 165.114 236.143 171.111 236.143H174.273L163.91 250.005H161.381V271.548H163.869V279.82H171.213V283.971H101.609V279.82H108.942V271.548L108.932 271.558ZM113.716 250.015V271.558H121.774V250.015H113.716ZM124.079 250.015V271.558H148.722V250.015H124.079ZM159.116 250.015H151.048V271.558H159.116V250.015Z" fill="#FF6A00"/>
<g opacity="0.37">
<path d="M250.547 260.531C252.658 260.531 254.372 262.245 254.372 264.356C254.372 266.468 252.658 268.181 250.547 268.181C248.436 268.181 246.722 266.468 246.722 264.356C246.722 262.245 248.436 260.531 250.547 260.531ZM295.152 260.531C297.263 260.531 298.977 262.245 298.977 264.356C298.977 266.468 297.263 268.181 295.152 268.181C293.04 268.181 291.327 266.468 291.327 264.356C291.327 262.245 293.04 260.531 295.152 260.531ZM250.547 260.531C252.658 260.531 254.372 262.245 254.372 264.356C254.372 266.468 252.658 268.181 250.547 268.181C248.436 268.181 246.722 266.468 246.722 264.356C246.722 262.245 248.436 260.531 250.547 260.531ZM295.152 260.531C297.263 260.531 298.977 262.245 298.977 264.356C298.977 266.468 297.263 268.181 295.152 268.181C293.04 268.181 291.327 266.468 291.327 264.356C291.327 262.245 293.04 260.531 295.152 260.531Z" fill="#FF6A00"/>
<path d="M179.061 250.623H234.641L226.634 239.484H187.058L179.061 250.623Z" fill="url(#paint0_linear_1_13623)"/>
<path d="M184.461 252.664H229.219V283.988H184.461V252.664Z" fill="url(#paint1_linear_1_13623)"/>
<path d="M359.117 232.704V275.411H335.209V232.704H359.117ZM432.231 232.704V275.411H408.322V232.704H432.231ZM437.219 211.784V219.76H431.629V211.784H437.219ZM430.038 211.784V219.76H412.933V211.784H430.038ZM411.341 211.784V219.76H405.752V211.784H411.341ZM402.957 211.784H404.161V219.76H400.54V208.54L402.957 211.784ZM398.948 190.456V202.145C398.622 202.145 398.285 202.196 397.99 202.196H395.766L398.948 206.419V219.811H393.359V190.466H398.948V190.456ZM391.768 190.456V219.77H374.662V190.456H391.768ZM367.471 202.022V190.456H373.061V219.77H367.471V207.816L371.674 202.196H369.47C368.797 202.196 368.134 202.145 367.471 202.033V202.022ZM364.493 211.784L365.86 209.948V219.76H362.259V211.784H364.483H364.493ZM360.668 211.784V219.76H355.078V211.784H360.668ZM353.456 211.784V219.76H336.382V211.784H353.456ZM334.76 211.784V219.76H329.17V211.784H334.76ZM334.76 211.784V219.76H329.17V211.784H334.76ZM359.107 275.411H335.198V232.704H359.107V275.411ZM336.371 211.784H353.456V219.76H336.382V211.784H336.371ZM355.068 211.784H360.668V219.76H355.078V211.784H355.068ZM365.849 209.948V219.76H362.249V211.784H364.472L365.839 209.948H365.849ZM373.061 219.76H367.471V207.806L371.674 202.186H369.47C368.797 202.186 368.134 202.135 367.471 202.022V190.456H373.061V219.77V219.76ZM391.757 219.76H374.652V190.445H391.768V219.76H391.757ZM398.938 202.135C398.612 202.135 398.275 202.186 397.979 202.186H395.756L398.938 206.408V219.801H393.349V190.456H398.948V202.145L398.938 202.135ZM404.15 211.784V219.76H400.529V208.54L402.947 211.784H404.15ZM411.331 219.76H405.742V211.784H411.341V219.76H411.331ZM432.231 275.411H408.322V232.704H432.231V275.411ZM412.933 211.784H430.038V219.76H412.933V211.784ZM431.619 211.784H437.209V219.76H431.619V211.784Z" fill="#FF6A00"/>
<path d="M6.89523 208.242V198.087H14.8515V161.642C4.40889 159.942 -4.79664 155.945 -6.93125 147.283C-1.3764 150.551 4.77276 152.677 11.1524 153.552V144.441H18.3445V111.665C8.94495 110.122 0.624794 106.502 -1.2915 98.7275C3.83885 101.74 9.52713 103.684 15.4337 104.425V96.5408H21.8497V64.3241C18.1505 62.8542 15.3367 60.5582 14.4634 56.9745C14.4634 56.9745 26.0947 64.397 37.3863 59.3434C37.3863 59.3434 28.8357 54.9458 27.8048 51.5686C27.8048 51.5686 37.3257 58.1164 47.6106 46.9159C46.2401 45.3852 46.3735 43.0407 47.9017 41.6679C48.4111 41.2184 49.0296 40.9026 49.7088 40.7811V11.3585C49.7088 11.1034 49.8665 10.8725 50.097 10.7511V0H50.7034V10.7511C50.9338 10.8604 51.0794 11.0912 51.0915 11.3585V40.7811C53.1048 41.1577 54.439 43.0893 54.063 45.1058C53.9417 45.774 53.6385 46.4057 53.1776 46.9159C63.4626 58.1164 72.9835 51.5686 72.9835 51.5686C71.9647 54.9822 63.4019 59.3434 63.4019 59.3434C74.6936 64.397 86.3248 56.9745 86.3248 56.9745C85.4516 60.5461 82.6256 62.8542 78.9386 64.3241V96.5408H85.3545V104.425C91.2611 103.684 96.9494 101.752 102.08 98.7275C100.163 106.502 91.8433 110.122 82.4437 111.665V144.501H89.6359V153.613C96.0155 152.75 102.165 150.612 107.72 147.344C105.585 155.981 96.343 160.015 85.9367 161.703V198.147H93.893V208.303C101.667 207.453 109.163 204.95 115.906 200.99C113.456 210.866 102.929 215.471 91.0064 217.402V258.936H94.2811L99.7268 274H1.12206L6.56778 258.936H9.79397V217.341C-2.12836 215.41 -12.668 210.806 -15.0938 200.929C-8.36243 204.902 -0.854866 207.392 6.90737 208.242H6.89523ZM80.8064 199.8V205.971H85.3545V199.8H80.8064ZM50.3881 165.627C45.9005 165.627 42.262 169.271 42.262 173.754V198.014H58.5505V173.766C58.5263 169.296 54.8999 165.676 50.4366 165.676L50.4002 165.615L50.3881 165.627ZM15.4216 199.8V205.971H19.9698V199.8H15.4216ZM61.1945 199.8V205.971H65.7427V199.8H61.1945ZM35.0455 199.8V205.971H39.5937V199.8H35.0455ZM41.5828 199.8V205.971H46.131V199.8H41.5828ZM48.12 205.971H52.6682V199.8H48.12V205.971ZM54.6694 205.971H59.2176V199.8H54.6694V205.971ZM21.971 205.971H26.5191V199.8H21.971V205.971ZM28.5082 205.971H33.0564V199.8H28.5082V205.971ZM67.744 199.8V205.971H72.2922V199.8H67.744ZM74.2812 205.971H78.8294V199.8H74.2812V205.971ZM8.88433 205.971H13.4325V199.8H8.88433V205.971ZM33.0201 198.074V178.103C32.8624 174.289 29.6483 171.324 25.84 171.47C22.2499 171.616 19.3633 174.495 19.2178 178.103V198.074H33.0079H33.0201ZM77.8349 146.032V151.596H81.9222V146.032H77.8349ZM50.3881 115.273C46.3493 115.273 43.0624 118.553 43.0624 122.611V144.477H57.7258V122.611C57.7258 118.565 54.439 115.285 50.4002 115.273H50.3759H50.3881ZM18.8782 146.032V151.596H22.9776V146.032H18.8782ZM60.1394 146.032V151.596H64.2388V146.032H60.1394ZM36.5494 146.032V151.596H40.6367V146.032H36.5494ZM42.456 146.032V151.596H46.5433V146.032H42.456ZM48.3505 151.596H52.4378V146.032H48.3505V151.596ZM54.2449 151.596H58.3322V146.032H54.2449V151.596ZM24.7605 151.596H28.8721V146.032H24.7848L24.7484 151.596H24.7605ZM30.6671 151.596H34.7544V146.032H30.6671V151.596ZM66.0459 146.032V151.596H70.1333V146.032H66.0459ZM71.9283 151.596H76.0156V146.032H71.9283V151.596ZM12.9716 151.596H17.0589V146.032H12.9595V151.596H12.9716ZM34.7302 144.477V126.486C34.8757 123.048 32.2195 120.145 28.7872 119.999C25.3548 119.853 22.4561 122.513 22.3106 125.951C22.3106 126.134 22.3106 126.304 22.3106 126.486V144.477H34.7423H34.7302ZM74.827 97.8893V102.846H78.4656V97.8893H74.827ZM50.3881 70.5561C46.7859 70.5561 43.8629 73.4838 43.8629 77.0917V96.5651H56.9253V77.0917C56.9617 73.4838 54.063 70.5318 50.4608 70.4953C50.4487 70.4953 50.4244 70.4953 50.4123 70.4953L50.3881 70.5561ZM22.3106 97.8893V102.846H25.9491V97.8893H22.3106ZM59.0721 97.8893V102.846H62.7106V97.8893H59.0721ZM38.0655 97.8893V102.846H41.7041V97.8893H38.0655ZM43.3171 97.8893V102.846H46.9557V97.8893H43.3171ZM48.5688 102.846H52.1952V97.8893H48.5688V102.846ZM53.8326 102.846H57.459V97.8893H53.9053L53.8326 102.846ZM27.5622 102.846H31.2008V97.8893H27.5622V102.846ZM32.8138 102.846H36.4524V97.8893H32.8138V102.846ZM64.3237 97.8893V102.846H67.9623V97.8893H64.3237ZM69.5753 102.846H73.226V97.8893H69.5875V102.846H69.5753ZM17.0711 102.846H20.6975V97.8893H17.0711V102.846ZM36.3918 96.5165V80.481C36.3918 77.4197 33.9176 74.9294 30.8612 74.9294C27.8048 74.9294 25.3184 77.4076 25.3184 80.4689V96.5165H36.3918ZM75.3607 80.481C75.3607 77.4197 72.8865 74.9294 69.8301 74.9294C66.7737 74.9294 64.2873 77.4076 64.2873 80.4689V96.5165H75.3607V80.481ZM83.6808 97.8893H80.0544V102.846H83.6929V97.8893H83.6808ZM78.4413 126.486C78.5868 123.048 75.9307 120.145 72.4983 119.999C69.066 119.853 66.1672 122.513 66.0217 125.951C66.0217 126.134 66.0217 126.304 66.0217 126.486V144.477H78.514L78.4413 126.486ZM87.756 146.032H83.6687V151.596H87.756V146.032ZM81.5098 178.115C81.3521 174.301 78.1381 171.337 74.3297 171.482C70.7397 171.628 67.8531 174.507 67.7076 178.115V198.087H81.5705L81.4977 178.115H81.5098ZM91.8433 199.751H87.2951V205.922H91.8433V199.751ZM41.0612 258.827H59.7028V231.251C59.7028 226.112 55.5548 221.958 50.4366 221.945C45.3062 221.945 41.1461 226.112 41.1461 231.251L41.0734 258.827H41.0612ZM85.961 236.049C85.961 231.688 82.4437 228.153 78.0896 228.141C73.7354 228.129 70.206 231.664 70.1939 236.025V258.827H86.0216L85.9488 236.049H85.961ZM30.4852 258.827V236.049C30.4852 231.688 26.9679 228.153 22.6138 228.141C18.2596 228.129 14.7303 231.664 14.7181 236.025V258.827H30.4731H30.4852Z" fill="url(#paint2_linear_1_13623)"/>
<path d="M-0.304581 277.938H99.125V283.996H-0.304581V277.938Z" fill="url(#paint3_linear_1_13623)"/>
<path d="M108.932 271.558H111.39V250.015H108.932L98.5792 236.154H101.741C107.729 236.154 113.41 233.512 117.276 228.932L117.327 228.871C115.664 227.208 115.226 224.668 116.246 222.547C116.246 223.455 116.592 224.332 117.204 225.015C118.071 226.005 119.326 226.555 120.642 226.545H152.323C153.639 226.555 154.893 226.005 155.76 225.015C156.372 224.332 156.709 223.455 156.719 222.547C157.739 224.699 157.28 227.259 155.567 228.922C159.432 233.502 165.114 236.143 171.111 236.143H174.273L163.91 250.005H161.381V271.548H163.869V279.82H171.213V283.971H101.609V279.82H108.942V271.548L108.932 271.558ZM113.716 250.015V271.558H121.774V250.015H113.716ZM124.079 250.015V271.558H148.722V250.015H124.079ZM159.116 250.015H151.048V271.558H159.116V250.015Z" fill="url(#paint4_linear_1_13623)"/>
</g>
<defs>
<linearGradient id="paint0_linear_1_13623" x1="197.217" y1="121.399" x2="215.75" y2="369.942" gradientUnits="userSpaceOnUse">
<stop stop-color="#231F20" stop-opacity="0"/>
<stop offset="1" stop-color="#231F20"/>
</linearGradient>
<linearGradient id="paint1_linear_1_13623" x1="195.906" y1="121.492" x2="214.429" y2="370.035" gradientUnits="userSpaceOnUse">
<stop stop-color="#231F20" stop-opacity="0"/>
<stop offset="1" stop-color="#231F20"/>
</linearGradient>
<linearGradient id="paint2_linear_1_13623" x1="43.1473" y1="103.526" x2="65.2435" y2="399.533" gradientUnits="userSpaceOnUse">
<stop stop-color="#231F20" stop-opacity="0"/>
<stop offset="1" stop-color="#231F20"/>
</linearGradient>
<linearGradient id="paint3_linear_1_13623" x1="38.3942" y1="133.23" x2="56.9174" y2="381.774" gradientUnits="userSpaceOnUse">
<stop stop-color="#231F20" stop-opacity="0"/>
<stop offset="1" stop-color="#231F20"/>
</linearGradient>
<linearGradient id="paint4_linear_1_13623" x1="127.976" y1="126.555" x2="146.499" y2="375.098" gradientUnits="userSpaceOnUse">
<stop stop-color="#231F20" stop-opacity="0"/>
<stop offset="1" stop-color="#231F20"/>
</linearGradient>
</defs>
</svg>
