<svg width="447" height="377" viewBox="0 0 447 377" fill="none" xmlns="http://www.w3.org/2000/svg">
<g style="mix-blend-mode:luminosity" opacity="0.4">
<path d="M341.263 108.143C362.196 108.143 379.166 91.173 379.166 70.2395C379.166 49.3059 362.196 32.3359 341.263 32.3359C320.329 32.3359 303.359 49.3059 303.359 70.2395C303.359 91.173 320.329 108.143 341.263 108.143Z" fill="white"/>
<path opacity="0.49" d="M554.973 179.937C544.808 181.786 534.48 182.541 524.152 182.214C516.856 181.975 508.465 180.478 504.917 174.2C488.085 179.471 469.718 174.779 457.478 162.086C456.308 165.143 451.842 164.765 448.823 163.444C438.696 159.004 430.607 150.915 426.154 140.8C416.354 143.593 405.85 142.323 396.993 137.291C394.15 135.366 391.156 133.68 388.036 132.259C384.665 131.24 381.155 130.749 377.633 130.812L333.188 129.34C346.095 127.868 358.121 122.107 367.355 112.974C371.607 108.747 375.242 103.84 380.174 100.343C385.105 96.846 391.735 95.0093 397.056 97.7643C398.239 81.8506 414.693 69.7738 430.582 70.2644C446.483 70.7425 460.912 81.4858 469.19 95.1225C467.416 92.1033 487.506 80.1397 489.846 79.0956C498.086 75.1329 507.093 73.0446 516.227 72.9691C519.522 72.944 522.793 73.5855 525.838 74.831C535.31 96.5063 543.953 125.654 551.576 166.187C552.457 170.829 553.589 175.421 554.948 179.937H554.973Z" fill="white"/>
<path d="M227.391 94.3762C230.611 93.8096 233.915 94.5991 236.53 96.5494C236.697 96.7166 236.902 96.828 237.135 96.8652C237.618 96.8652 237.972 96.4287 238.223 96.0015C240.401 92.3608 244.152 89.1938 248.358 89.2588C250.489 89.4353 252.565 90.0018 254.472 90.9398C256.324 91.5156 257.972 92.6116 259.219 94.0975C257.134 93.3917 255.189 92.3329 253.114 91.5899C251.066 90.7448 248.805 90.5498 246.636 91.0234C243.407 91.9336 241.285 94.9613 239.703 97.9147L243.547 98.379C242.504 98.249 241.453 98.4719 240.559 99.0199L231.309 103.45L236.055 99.9022C236.111 99.865 236.148 99.8186 236.176 99.7629C236.195 99.6607 236.148 99.5493 236.046 99.5028C232.909 96.6051 228.331 95.8714 224.441 97.6453C220.625 99.5028 217.945 103.078 217.219 107.258C218.345 101.267 220.792 95.6021 227.391 94.3947V94.3762Z" fill="#FF6A00"/>
<path d="M194.384 122.37C197.595 121.812 200.9 122.602 203.515 124.544C203.692 124.702 203.897 124.814 204.13 124.86C204.614 124.86 204.967 124.423 205.219 123.996C207.388 120.353 211.148 117.185 215.356 117.259C217.487 117.426 219.563 117.993 221.471 118.932C223.324 119.517 224.971 120.614 226.219 122.091C224.134 121.385 222.188 120.325 220.112 119.582C218.064 118.737 215.803 118.541 213.634 119.015C210.404 119.935 208.281 122.955 206.699 125.91L210.543 126.375C209.501 126.245 208.449 126.468 207.555 127.016L198.303 131.448L203.05 127.899C203.05 127.899 203.152 127.815 203.171 127.759C203.189 127.657 203.143 127.555 203.05 127.499C199.913 124.6 195.333 123.866 191.442 125.641C187.626 127.499 184.945 131.076 184.219 135.258C185.336 129.264 187.765 123.596 194.384 122.388V122.37Z" fill="#FF6A00"/>
<path d="M240.398 127.4C243.608 126.831 246.911 127.615 249.525 129.574C249.693 129.733 249.907 129.845 250.13 129.892C250.633 129.948 250.986 129.453 251.228 129.033C253.396 125.357 257.155 122.184 261.361 122.259C263.482 122.436 265.557 123.006 267.474 123.948C269.325 124.526 270.972 125.618 272.219 127.111C270.135 126.402 268.181 125.338 266.115 124.601C264.068 123.743 261.807 123.537 259.639 124.032C256.411 124.946 254.289 127.979 252.707 130.937L256.541 131.403C255.508 131.272 254.447 131.496 253.563 132.056L244.306 136.488L249.051 132.859C249.107 132.831 249.144 132.775 249.172 132.719C249.19 132.616 249.144 132.513 249.051 132.457C245.906 129.546 241.328 128.809 237.43 130.601C233.624 132.467 230.935 136.059 230.219 140.258C231.391 134.286 233.764 128.595 240.388 127.391L240.398 127.4Z" fill="#FF6A00"/>
<g opacity="0.3">
<path d="M582.626 359.292C574.386 385.483 553.692 408.228 529.488 422.343C473.935 454.787 435.742 450.308 375.924 427.979C358.199 421.362 341.128 412.128 323.704 404.58C323.239 400.026 323 395.447 323 390.88C322.987 344.611 347.254 301.713 386.932 277.912C389.661 276.314 392.442 274.704 395.297 273.295C397.687 272.075 400.128 270.93 402.594 269.861C403.839 269.32 405.11 268.791 406.393 268.263C416.771 264.162 427.64 261.407 438.723 260.073C444.045 259.432 449.391 259.117 454.75 259.117C467.129 259.105 479.432 260.828 491.32 264.262C494.642 265.219 497.912 266.288 501.108 267.47C541.728 282.805 572.21 317.149 582.613 359.292H582.626Z" fill="#FF6A00"/>
<path d="M438.72 260.108C434.342 260.636 430.002 261.379 425.7 262.347C420.982 246.522 411.623 222.544 394.086 200.818C392.149 198.403 390.098 196.013 387.935 193.686C372.562 176.703 352.962 164.097 331.148 157.141C331.148 157.141 360.233 157.946 390.451 184.162C392.325 185.773 394.199 187.496 396.061 189.308C411.736 204.517 427.234 226.985 438.707 260.108H438.72Z" fill="#FF6A00"/>
<path d="M438.72 260.108C434.342 260.636 430.002 261.379 425.7 262.347C420.982 246.522 411.623 222.544 394.086 200.818C392.149 198.403 390.098 196.013 387.935 193.686C372.562 176.703 352.962 164.097 331.148 157.141C331.148 157.141 360.233 157.946 390.451 184.162C392.325 185.773 394.199 187.496 396.061 189.308C411.736 204.517 427.234 226.985 438.707 260.108H438.72Z" fill="url(#paint0_linear_1_13643)"/>
<path d="M402.583 269.869C400.117 270.938 397.689 272.083 395.287 273.303C384.065 239.815 383.663 213.586 387.927 193.671C388.644 190.3 389.525 187.117 390.443 184.06C399.463 155.479 417.515 142.823 418.27 142.383C407.451 156.133 399.866 172.135 396.067 189.206C395.199 193.068 394.557 196.93 394.091 200.741C390.821 227.361 396.431 252.156 402.57 269.869H402.583Z" fill="#FF6A00"/>
<path d="M402.583 269.869C400.117 270.938 397.689 272.083 395.287 273.303C384.065 239.815 383.663 213.586 387.927 193.671C388.644 190.3 389.525 187.117 390.443 184.06C399.463 155.479 417.515 142.823 418.27 142.383C407.451 156.133 399.866 172.135 396.067 189.206C395.199 193.068 394.557 196.93 394.091 200.741C390.821 227.361 396.431 252.156 402.57 269.869H402.583Z" fill="url(#paint1_linear_1_13643)"/>
<path d="M336.395 176.892C336.974 181.307 338.144 185.61 339.867 189.711C342.32 196.68 345.239 203.461 348.598 210.04C339.213 209.675 331.011 203.587 327.954 194.705C325.753 187.912 326.96 180.515 328.596 173.583C329.199 170.363 330.344 167.256 331.967 164.4C318.28 173.885 306.958 188.013 304.492 204.467C300.542 195.623 298.467 186.063 298.391 176.389C298.001 172.703 299.309 169.042 301.964 166.45C307.449 160.035 315.173 154.94 323.551 155.342C311.977 149.342 300.115 143.945 288 139.139C293.271 137.089 298.693 134.988 304.354 134.912C312.367 134.799 319.752 138.674 326.671 142.637C329.011 143.97 331.476 145.48 332.584 147.92C334.294 146.222 333.716 143.404 333.036 141.089L328.08 124.609C331.137 125.779 334.081 127.226 336.861 128.937C338.509 129.868 339.981 131.075 341.201 132.522C344.409 136.749 343.49 142.85 341.591 147.845C344.774 144.423 349.353 142.649 354.007 143.039C358.599 143.492 363.027 144.951 366.99 147.316C371.003 149.518 375.003 152.336 376.802 156.5C367.631 153.342 358.02 151.656 348.321 151.531C345.478 151.531 342.371 151.719 340.308 153.707C347.327 156.097 353.856 159.77 359.542 164.526C365.229 169.331 369.066 175.986 370.361 183.333C370.198 182.175 366.562 179.785 365.556 178.93C363.82 177.332 362.058 175.823 360.247 174.351C356.712 171.394 352.875 168.828 348.799 166.652C346.497 165.444 339.515 161.494 336.974 163.268C335.15 164.677 336.207 174.539 336.395 176.892Z" fill="#FF6A00"/>
<path d="M478.891 160.421C478.463 164.12 478.551 167.869 479.142 171.542C479.709 177.757 480.702 183.921 482.111 189.984C474.538 187.758 469.104 181.128 468.387 173.265C467.971 167.29 470.437 161.503 473.192 156.169C474.337 153.653 475.884 151.351 477.796 149.363C464.701 154.32 452.599 163.554 447.252 176.499C445.793 168.46 446.019 160.195 447.931 152.244C448.208 150.71 448.749 149.238 449.529 147.879C450.397 146.684 451.492 145.652 452.737 144.847C458.486 140.796 465.845 138.13 472.601 140.155C464.399 132.934 455.844 126.116 446.95 119.725C451.668 119.121 456.561 118.505 461.153 119.587C467.682 121.184 472.953 125.789 477.796 130.418C479.595 131.827 480.904 133.764 481.558 135.953C483.294 134.909 483.407 132.494 483.306 130.468L482.615 116.039C484.917 117.624 487.068 119.423 489.03 121.411C490.188 122.505 491.144 123.788 491.848 125.222C493.66 129.336 491.622 134.117 489.055 137.802C492.351 135.676 496.452 135.186 500.164 136.456C503.85 137.74 507.196 139.815 509.976 142.545C512.794 145.137 515.436 148.256 516.102 152.03C509.284 147.59 501.812 144.269 493.949 142.193C491.66 141.602 489.055 141.136 487.03 142.369C492.263 145.74 496.83 150.055 500.478 155.1C504.139 160.182 505.913 166.384 505.498 172.636C505.598 171.655 503.107 168.963 502.503 168.07C501.409 166.472 500.289 164.862 499.107 163.264C496.817 160.132 494.213 157.251 491.332 154.66C489.735 153.213 484.791 148.571 482.363 149.502C480.388 150.206 479.243 158.459 478.916 160.434L478.891 160.421Z" fill="#FF6A00"/>
<path d="M375.219 147.039C384.943 147.064 394.667 146.523 404.329 145.441C398.655 156.059 397.385 168.488 400.807 180.036C404.555 175.369 404.643 168.815 406.191 163.091C407.398 158.537 409.587 154.297 412.607 150.674C413.173 155.757 414.494 160.713 416.532 165.406C419.576 172.425 424.293 179.105 424.432 186.754C430.797 173.91 429.413 158.587 420.846 147.102C430.973 150.31 439.767 156.751 445.868 165.443C448.585 152.838 440.572 140.434 427.967 137.717C427.187 137.541 426.394 137.415 425.589 137.327C429.74 133.503 434.445 130.333 439.528 127.905C435.817 125.691 431.615 124.433 427.3 124.219C423.01 124.219 418.481 126.458 416.846 130.433C416.167 125.099 416.255 119.702 417.123 114.406C412.858 116.759 408.229 119.539 406.732 124.181C405.738 127.238 408.329 132.798 406.367 135.126C404.392 137.453 398.63 135.943 396.039 136.308C388.063 137.352 380.691 141.151 375.219 147.051V147.039Z" fill="#FF6A00"/>
<path d="M336.395 176.892C336.974 181.307 338.144 185.61 339.867 189.711C342.32 196.68 345.239 203.461 348.598 210.04C339.213 209.675 331.011 203.587 327.954 194.705C325.753 187.912 326.96 180.515 328.596 173.583C329.199 170.363 330.344 167.256 331.967 164.4C318.28 173.885 306.958 188.013 304.492 204.467C300.542 195.623 298.467 186.063 298.391 176.389C298.001 172.703 299.309 169.042 301.964 166.45C307.449 160.035 315.173 154.94 323.551 155.342C311.977 149.342 300.115 143.945 288 139.139C293.271 137.089 298.693 134.988 304.354 134.912C312.367 134.799 319.752 138.674 326.671 142.637C329.011 143.97 331.476 145.48 332.584 147.92C334.294 146.222 333.716 143.404 333.036 141.089L328.08 124.609C331.137 125.779 334.081 127.226 336.861 128.937C338.509 129.868 339.981 131.075 341.201 132.522C344.409 136.749 343.49 142.85 341.591 147.845C344.774 144.423 349.353 142.649 354.007 143.039C358.599 143.492 363.027 144.951 366.99 147.316C371.003 149.518 375.003 152.336 376.802 156.5C367.631 153.342 358.02 151.656 348.321 151.531C345.478 151.531 342.371 151.719 340.308 153.707C347.327 156.097 353.856 159.77 359.542 164.526C365.229 169.331 369.066 175.986 370.361 183.333C370.198 182.175 366.562 179.785 365.556 178.93C363.82 177.332 362.058 175.823 360.247 174.351C356.712 171.394 352.875 168.828 348.799 166.652C346.497 165.444 339.515 161.494 336.974 163.268C335.15 164.677 336.207 174.539 336.395 176.892Z" fill="url(#paint2_linear_1_13643)"/>
<path d="M478.891 160.421C478.463 164.12 478.551 167.869 479.142 171.542C479.709 177.757 480.702 183.921 482.111 189.984C474.538 187.758 469.104 181.128 468.387 173.265C467.971 167.29 470.437 161.503 473.192 156.169C474.337 153.653 475.884 151.351 477.796 149.363C464.701 154.32 452.599 163.554 447.252 176.499C445.793 168.46 446.019 160.195 447.931 152.244C448.208 150.71 448.749 149.238 449.529 147.879C450.397 146.684 451.492 145.652 452.737 144.847C458.486 140.796 465.845 138.13 472.601 140.155C464.399 132.934 455.844 126.116 446.95 119.725C451.668 119.121 456.561 118.505 461.153 119.587C467.682 121.184 472.953 125.789 477.796 130.418C479.595 131.827 480.904 133.764 481.558 135.953C483.294 134.909 483.407 132.494 483.306 130.468L482.615 116.039C484.917 117.624 487.068 119.423 489.03 121.411C490.188 122.505 491.144 123.788 491.848 125.222C493.66 129.336 491.622 134.117 489.055 137.802C492.351 135.676 496.452 135.186 500.164 136.456C503.85 137.74 507.196 139.815 509.976 142.545C512.794 145.137 515.436 148.256 516.102 152.03C509.284 147.59 501.812 144.269 493.949 142.193C491.66 141.602 489.055 141.136 487.03 142.369C492.263 145.74 496.83 150.055 500.478 155.1C504.139 160.182 505.913 166.384 505.498 172.636C505.598 171.655 503.107 168.963 502.503 168.07C501.409 166.472 500.289 164.862 499.107 163.264C496.817 160.132 494.213 157.251 491.332 154.66C489.735 153.213 484.791 148.571 482.363 149.502C480.388 150.206 479.243 158.459 478.916 160.434L478.891 160.421Z" fill="url(#paint3_linear_1_13643)"/>
<path d="M375.219 147.039C384.943 147.064 394.667 146.523 404.329 145.441C398.655 156.059 397.385 168.488 400.807 180.036C404.555 175.369 404.643 168.815 406.191 163.091C407.398 158.537 409.587 154.297 412.607 150.674C413.173 155.757 414.494 160.713 416.532 165.406C419.576 172.425 424.293 179.105 424.432 186.754C430.797 173.91 429.413 158.587 420.846 147.102C430.973 150.31 439.767 156.751 445.868 165.443C448.585 152.838 440.572 140.434 427.967 137.717C427.187 137.541 426.394 137.415 425.589 137.327C429.74 133.503 434.445 130.333 439.528 127.905C435.817 125.691 431.615 124.433 427.3 124.219C423.01 124.219 418.481 126.458 416.846 130.433C416.167 125.099 416.255 119.702 417.123 114.406C412.858 116.759 408.229 119.539 406.732 124.181C405.738 127.238 408.329 132.798 406.367 135.126C404.392 137.453 398.63 135.943 396.039 136.308C388.063 137.352 380.691 141.151 375.219 147.051V147.039Z" fill="url(#paint4_linear_1_13643)"/>
</g>
<path opacity="0.24" d="M603.865 378.846C602.796 380.696 601.664 382.507 600.456 384.281C595.487 383.878 590.531 383.514 585.662 383.249C557.533 381.803 529.404 385.061 501.439 388.319L355.272 405.277L354.706 405.038L394.773 390.521C375.337 387.023 355.939 396.735 336.176 397.087H333.999C324.225 393.842 314.047 391.917 303.757 391.401H299.543C296.07 390.684 292.586 390.043 289.076 389.59C275.313 387.791 261.35 388.885 247.499 389.98L88.576 402.384C98.7406 397.779 109.006 393.1 117.699 386.118C97.8348 384.042 77.7823 384.658 58.0946 387.967C51.2385 381.488 45.0617 374.343 39.6523 366.619L38.0547 364.317C51.3643 364.04 65.9068 365.914 76.5243 365.826C119.133 365.574 161.741 365.864 204.35 366.694L168.484 377.752C234.34 392.433 303.518 373.676 370.267 383.426L360.908 373.814C416.713 374.506 473.838 375.022 526.863 358.039C515.742 362.027 505.087 367.235 495.111 373.55C502.785 383.086 516.975 383.3 529.203 382.671L603.891 378.872L603.865 378.846Z" fill="white"/>
</g>
<defs>
<linearGradient id="paint0_linear_1_13643" x1="397.986" y1="168.425" x2="381.292" y2="219.877" gradientUnits="userSpaceOnUse">
<stop stop-color="#231F20"/>
<stop offset="0.13" stop-color="#231F20" stop-opacity="0.69"/>
<stop offset="0.25" stop-color="#231F20" stop-opacity="0.32"/>
<stop offset="1" stop-color="#231F20" stop-opacity="0"/>
</linearGradient>
<linearGradient id="paint1_linear_1_13643" x1="377.738" y1="162.196" x2="436.713" y2="254.861" gradientUnits="userSpaceOnUse">
<stop stop-color="#231F20"/>
<stop offset="0.13" stop-color="#231F20" stop-opacity="0.69"/>
<stop offset="0.25" stop-color="#231F20" stop-opacity="0.32"/>
<stop offset="1" stop-color="#231F20" stop-opacity="0"/>
</linearGradient>
<linearGradient id="paint2_linear_1_13643" x1="303.687" y1="94.9457" x2="416.807" y2="356.685" gradientUnits="userSpaceOnUse">
<stop stop-color="#231F20"/>
<stop offset="0.13" stop-color="#231F20" stop-opacity="0.69"/>
<stop offset="0.25" stop-color="#231F20" stop-opacity="0.32"/>
<stop offset="1" stop-color="#231F20" stop-opacity="0"/>
</linearGradient>
<linearGradient id="paint3_linear_1_13643" x1="428.558" y1="40.9742" x2="541.665" y2="302.714" gradientUnits="userSpaceOnUse">
<stop stop-color="#231F20"/>
<stop offset="0.13" stop-color="#231F20" stop-opacity="0.69"/>
<stop offset="0.25" stop-color="#231F20" stop-opacity="0.32"/>
<stop offset="1" stop-color="#231F20" stop-opacity="0"/>
</linearGradient>
<linearGradient id="paint4_linear_1_13643" x1="375.558" y1="63.8598" x2="488.69" y2="325.612" gradientUnits="userSpaceOnUse">
<stop stop-color="#231F20"/>
<stop offset="0.13" stop-color="#231F20" stop-opacity="0.69"/>
<stop offset="0.25" stop-color="#231F20" stop-opacity="0.32"/>
<stop offset="1" stop-color="#231F20" stop-opacity="0"/>
</linearGradient>
</defs>
</svg>
