<svg width="32" height="32" viewBox="0 0 32 32" fill="none" xmlns="http://www.w3.org/2000/svg">
<path d="M8.00008 9.33301H14.6667C15.0204 9.33301 15.3595 9.47348 15.6096 9.72353C15.8596 9.97358 16.0001 10.3127 16.0001 10.6663C16.0001 11.02 15.8596 11.3591 15.6096 11.6092C15.3595 11.8592 15.0204 11.9997 14.6667 11.9997H8.00008C7.64646 11.9997 7.30732 11.8592 7.05727 11.6092C6.80722 11.3591 6.66675 11.02 6.66675 10.6663C6.66675 10.3127 6.80722 9.97358 7.05727 9.72353C7.30732 9.47348 7.64646 9.33301 8.00008 9.33301ZM17.3334 19.9997H24.0001C24.3537 19.9997 24.6928 20.1402 24.9429 20.3902C25.1929 20.6402 25.3334 20.9794 25.3334 21.333C25.3334 21.6866 25.1929 22.0258 24.9429 22.2758C24.6928 22.5259 24.3537 22.6663 24.0001 22.6663H17.3334C16.9798 22.6663 16.6407 22.5259 16.3906 22.2758C16.1406 22.0258 16.0001 21.6866 16.0001 21.333C16.0001 20.9794 16.1406 20.6402 16.3906 20.3902C16.6407 20.1402 16.9798 19.9997 17.3334 19.9997ZM8.00008 14.6663H24.0001C24.3537 14.6663 24.6928 14.8068 24.9429 15.0569C25.1929 15.3069 25.3334 15.6461 25.3334 15.9997C25.3334 16.3533 25.1929 16.6924 24.9429 16.9425C24.6928 17.1925 24.3537 17.333 24.0001 17.333H8.00008C7.64646 17.333 7.30732 17.1925 7.05727 16.9425C6.80722 16.6924 6.66675 16.3533 6.66675 15.9997C6.66675 15.6461 6.80722 15.3069 7.05727 15.0569C7.30732 14.8068 7.64646 14.6663 8.00008 14.6663Z" fill="white"/>
</svg>
