<svg width="300" height="86" viewBox="0 0 300 86" fill="none" xmlns="http://www.w3.org/2000/svg">
<g clip-path="url(#clip0_6022_4358)">
<path d="M286.223 38.5938H276.863L263.547 57.3959L250.231 38.5938H240.805L258.998 64.4136V85.4667H267.568V64.8108H267.766L286.223 38.5938Z" fill="#1C1C1C"/>
<path d="M33.0257 60.9048L32.3665 60.4413L32.8939 59.9117C35.1351 57.5283 36.3217 54.5491 36.3217 51.5699C36.3217 44.4198 29.7297 38.5938 21.6875 38.5938H0V85.0695H23.0059C31.5096 85.0695 38.4311 78.9125 38.4311 71.3651C38.4311 67.3928 36.4535 63.5529 33.0257 60.9048ZM8.10811 45.3466H21.7535C25.5109 45.3466 28.6091 48.061 28.6091 51.5037C28.6091 54.8801 25.5768 57.6607 21.7535 57.6607H8.10811V45.3466ZM23.0059 78.2504H8.10811V64.4798H23.0059C27.2248 64.4798 30.7844 67.5252 30.7844 71.3651C30.7185 75.1388 27.2248 78.2504 23.0059 78.2504Z" fill="#1C1C1C"/>
<path d="M173.636 69.5114L160.188 38.5938H151.289L171.724 85.0033H175.416L195.917 38.5938H186.952L173.636 69.5114Z" fill="#1C1C1C"/>
<path d="M70.6622 37.6719C57.3465 37.6719 46.6016 48.4633 46.6016 61.8366C46.6016 75.21 57.4124 86.0014 70.6622 86.0014C83.978 86.0014 94.7229 75.21 94.7229 61.8366C94.7229 48.4633 84.0439 37.6719 70.6622 37.6719ZM70.6622 78.0568C61.7631 78.0568 54.5119 70.8405 54.5119 61.8366C54.5119 52.8328 61.6971 45.6164 70.6622 45.6164C79.6273 45.6164 86.8125 52.8328 86.8125 61.8366C86.8784 70.7081 79.6273 78.0568 70.6622 78.0568Z" fill="#1C1C1C"/>
<path d="M134.807 68.5183L108.44 38.5938H104.484V85.0033H112.527V55.0787L138.828 85.0033H142.915V38.5938H134.807V68.5183Z" fill="#1C1C1C"/>
<path d="M239.485 78.2578H198.812V85.0769H239.485V78.2578Z" fill="#FF9662"/>
<path d="M218.721 38.3984C209.821 38.3984 202.57 45.6148 202.57 54.6186C202.57 63.6225 209.756 70.8388 218.721 70.8388C227.686 70.8388 234.871 63.6225 234.871 54.6186C234.871 45.6148 227.686 38.3984 218.721 38.3984ZM218.721 63.9535C213.579 63.9535 209.426 59.7826 209.426 54.6186C209.426 49.4546 213.579 45.2837 218.721 45.2837C223.862 45.2837 228.015 49.4546 228.015 54.6186C228.147 59.7826 223.862 63.9535 218.721 63.9535Z" fill="#1C1C1C"/>
<path d="M43.8351 8.47333V24.2301H39.4844V0.992188H44.3624L51.4817 13.8359L58.6011 0.992188H63.4791V24.2301H59.1284V8.47333L52.9979 19.7281H49.9656L43.8351 8.47333Z" fill="#1C1C1C"/>
<path d="M227.883 1.19531V5.1676H234.738V24.4332H239.089V5.1676H245.945V1.19531H227.883Z" fill="#1C1C1C"/>
<path d="M202.898 1.19531V5.1676H209.754V24.4332H214.039V5.1676H220.829V1.19531H202.898Z" fill="#1C1C1C"/>
<path d="M164.601 1.0625H160.25V24.3004H164.601V1.0625Z" fill="#1C1C1C"/>
<path d="M106.463 14.829H109.957L116.417 24.2301H121.361L114.769 14.6966C118.461 14.1669 121.361 11.3201 121.361 7.87748C121.361 4.10381 117.868 0.992188 113.583 0.992188H102.047V24.2301H106.398C106.463 24.3625 106.463 14.829 106.463 14.829ZM106.463 4.69966H113.649C115.626 4.69966 117.274 6.15616 117.274 7.94369C117.274 9.73122 115.626 11.1877 113.649 11.1877H106.463V4.69966Z" fill="#1C1C1C"/>
<path d="M83.4524 8.73815L86.8143 16.0869H80.0246L83.4524 8.73815ZM82.4636 0.992188L71.7188 24.2301H76.3331L78.3766 19.7943H88.5942L90.6377 24.2301H95.252L84.5731 0.992188H82.4636Z" fill="#1C1C1C"/>
<path d="M142.911 0.992188H131.375V24.2301H135.726V14.829H139.219L145.68 24.2301H150.624L144.032 14.6966C147.723 14.1669 150.624 11.3201 150.624 7.87748C150.755 4.03761 147.196 0.992188 142.911 0.992188ZM146.602 7.87748C146.602 9.66501 144.954 11.1215 142.977 11.1215H135.792V4.69965H142.977C144.954 4.69965 146.602 6.15616 146.602 7.87748Z" fill="#1C1C1C"/>
<path d="M185.626 0C178.968 0 173.562 5.42879 173.562 12.0493C173.562 18.736 178.968 24.0985 185.626 24.0985C192.284 24.0985 197.689 18.6697 197.689 12.0493C197.689 5.42879 192.284 0 185.626 0ZM185.626 19.8614C181.407 19.8614 177.847 16.4188 177.847 12.0493C177.847 7.81216 181.275 4.23711 185.626 4.23711C189.845 4.23711 193.404 7.67975 193.404 12.0493C193.404 16.4188 189.845 19.8614 185.626 19.8614Z" fill="#1C1C1C"/>
<path d="M291.099 39.197H289.188V38.4688H293.736V39.197H291.89V44.361H291.099V39.197Z" fill="#1C1C1C"/>
<path d="M295.124 44.361H294.398V38.4688H295.585L297.035 42.9045C297.101 43.1031 297.101 43.2355 297.233 43.3679C297.233 43.1693 297.299 43.0369 297.299 42.9045L298.815 38.4688H300.002V44.361H299.211V39.3956C299.211 39.5942 299.145 39.7266 299.013 39.9253L297.497 44.361H296.772L295.321 39.9253C295.255 39.7266 295.255 39.5942 295.255 39.3956V44.361H295.124Z" fill="#1C1C1C"/>
</g>
<defs>
<clipPath id="clip0_6022_4358">
<rect width="300" height="86" fill="white"/>
</clipPath>
</defs>
</svg>
