<svg width="136" height="127" viewBox="0 0 136 127" fill="none" xmlns="http://www.w3.org/2000/svg">
<path d="M110.413 17.2569L114.722 14.6953V0L97.8906 9.84183M113.106 4.98832V14.1561L109.201 7.28026L113.106 4.98832ZM110.817 15.5043L103.007 10.9204L106.912 8.62845L110.817 15.5043Z" fill="#8C734C"/>
<path d="M109.061 19.5459L96.5391 12.2656V32.0841L109.061 24.8038M99.9053 16.1754L107.715 20.7593H99.9053V16.1754ZM99.9053 28.0395V23.4556H107.715L99.9053 28.0395Z" fill="#8C734C"/>
<path d="M117.414 29.5225V44.2178L134.38 34.376L121.857 26.9609M119.164 39.2295V30.0618L123.069 36.9376L119.164 39.2295ZM125.358 35.5894L121.454 28.7136L129.263 33.2975L125.358 35.5894Z" fill="#8C734C"/>
<path d="M123.203 19.5459V24.669L135.725 31.9493V12.2656M132.225 28.0395L124.415 23.4556H132.225V28.0395ZM132.225 20.7593H124.415L132.225 16.1754V20.7593Z" fill="#8C734C"/>
<path d="M134.38 9.84183L117.414 0V14.6953L121.723 17.2569M119.164 4.98832L123.069 7.28026L119.164 14.1561V4.98832ZM125.358 8.62845L129.263 10.9204L121.454 15.5043L125.358 8.62845Z" fill="#8C734C"/>
<path d="M97.8906 34.376L114.856 44.2178V29.5225L110.413 26.9609M113.106 39.2295L109.201 36.9376L113.106 30.0618V39.2295ZM106.912 35.5894L103.007 33.2975L110.817 28.7136L106.912 35.5894Z" fill="#8C734C"/>
<path d="M21.6783 84.5343C21.6783 91.5449 21.6783 97.6118 21.2744 100.847C21.0051 103.005 20.6011 104.757 18.9854 105.027C18.3121 105.162 17.3696 105.297 16.2924 105.297C15.3499 105.297 15.0806 105.566 15.0806 105.971C15.0806 106.51 15.6192 106.78 16.5617 106.78C19.6586 106.78 24.5059 106.51 26.2564 106.51C28.4107 106.51 33.2581 106.78 38.3747 106.78C39.1826 106.78 39.8558 106.51 39.8558 105.971C39.8558 105.566 39.4519 105.297 38.644 105.297C37.4321 105.297 35.8164 105.162 34.7392 105.027C32.4502 104.757 32.0462 103.005 31.7769 100.847C31.373 97.477 31.373 91.5449 31.373 84.3995V52.9865L41.0676 53.2562C47.9347 53.391 49.9544 55.5481 50.0891 57.5704L50.2237 58.3793C50.3584 59.5927 50.493 59.8623 51.0316 59.8623C51.4355 59.8623 51.7048 59.4579 51.7048 58.649C51.7048 56.6267 51.9741 51.3687 51.9741 49.7509C51.9741 48.5375 51.8395 48.133 51.3009 48.133C50.6277 48.133 48.8772 48.9419 43.8952 48.9419H13.4648C10.9065 48.9419 8.07888 48.8071 5.78987 48.5375C3.90479 48.4027 3.0969 47.5938 2.42366 47.5938C2.01972 47.5938 1.75042 47.9982 1.48113 49.0768C1.48113 49.7509 0 56.7615 0 57.9749C0 58.7838 0.134648 59.1882 0.67324 59.1882C1.07718 59.1882 1.34648 58.9186 1.48113 58.2445C1.61578 57.5704 2.01972 56.7615 2.82761 55.5481C4.03944 53.9303 5.78986 53.5258 10.2332 53.391L21.6783 53.1214" fill="#8C734C"/>
<path d="M79.8448 86.8265L80.5181 87.3657L86.5772 103.679C86.9812 104.623 86.4426 105.297 85.904 105.432C85.0961 105.566 84.8268 105.701 84.8268 106.106C84.8268 106.645 85.7693 106.645 87.1158 106.78C93.175 106.915 98.5609 106.915 101.254 106.915C104.081 106.915 104.755 106.78 104.755 106.106C104.755 105.566 104.351 105.432 103.812 105.432C102.87 105.432 101.792 105.297 100.715 105.162C99.0995 104.757 96.9451 103.679 94.1175 96.8031C89.2702 85.0738 77.2865 53.7957 75.5361 49.4814C74.7282 47.7288 74.3243 47.0547 73.651 47.0547C72.8431 47.0547 72.4392 47.8636 71.4967 50.1555L52.6459 98.4209C51.1648 102.331 49.6837 104.892 46.3175 105.297C45.7789 105.432 44.7017 105.432 44.0285 105.432C43.4899 105.432 43.0859 105.566 43.0859 106.106C43.0859 106.78 43.4899 106.915 44.5671 106.915C48.4719 106.915 52.6459 106.645 53.4538 106.645C55.7428 106.645 58.9744 106.915 61.3981 106.915C62.2059 106.915 62.6099 106.78 62.6099 106.106C62.6099 105.701 62.3406 105.432 61.5327 105.432H60.4555C58.1665 105.432 57.4933 104.488 57.4933 103.005C57.4933 102.061 57.8972 100.308 58.5705 98.2861L62.6099 87.2309C62.7445 86.8264 62.8792 86.5568 63.2831 86.5568M64.6296 82.9167L64.3603 82.3774L71.2274 63.5027L71.6313 62.8286L72.0353 63.5027L78.7677 82.5122L78.3637 82.9167H64.6296Z" fill="#8C734C"/>
<path d="M112.434 93.4338C112.434 108.534 112.569 116.218 106.914 122.15C105.432 123.633 104.355 124.577 103.413 125.116C102.201 125.79 101.797 126.06 101.797 126.465L102.335 127.139C102.739 127.139 103.278 127.004 103.817 126.734C105.298 125.925 106.51 125.386 107.452 124.712C114.454 120.128 118.359 114.87 119.974 110.151C121.455 105.837 121.725 100.849 121.725 96.5346C121.725 92.7597 121.455 88.9847 121.455 85.749V71.3233C121.455 59.594 121.455 57.4369 121.59 55.0102C121.725 52.3138 122.263 50.9656 124.283 50.696C125.226 50.5611 125.63 50.4263 126.437 50.4263C127.38 50.4263 127.784 50.2915 127.784 49.7522C127.784 49.2129 127.245 49.0781 126.168 49.0781C123.341 49.0781 118.628 49.3478 116.877 49.3478C114.992 49.3478 110.28 49.0781 106.51 49.0781C105.432 49.0781 104.894 49.2129 104.894 49.7522C104.894 50.2915 105.298 50.4263 106.106 50.4263C107.183 50.4263 108.395 50.5611 108.933 50.696C111.357 51.2352 111.895 52.4486 112.03 55.0102C112.165 57.4369 112.165 59.594 112.165 71.3233" fill="#8C734C"/>
</svg>
